<?xml version="1.0" standalone="no"?>
<!DOCTYPE svg PUBLIC "-//W3C//DTD SVG 20010904//EN"
 "http://www.w3.org/TR/2001/REC-SVG-20010904/DTD/svg10.dtd">
<svg version="1.0" xmlns="http://www.w3.org/2000/svg"
 width="1677.000000pt" height="250.000000pt" viewBox="0 0 1677.000000 250.000000"
 preserveAspectRatio="xMidYMid meet">

<g transform="translate(0.000000,250.000000) scale(0.100000,-0.100000)"
fill="#000000" stroke="none">
<path d="M1439 2425 c-256 -42 -487 -162 -665 -347 -120 -125 -204 -254 -265
-411 l-27 -71 -74 -13 c-84 -14 -318 -80 -332 -94 -19 -18 1 -17 69 2 148 42
329 79 388 79 136 -1 311 -60 427 -145 38 -28 49 -31 70 -23 14 6 59 11 100
12 64 1 80 -3 108 -22 17 -13 32 -29 32 -35 1 -37 17 -36 95 3 69 33 154 61
258 84 23 6 27 3 28 -16 0 -14 24 23 59 94 33 64 63 119 68 122 9 5 148 -221
140 -229 -2 -2 -24 2 -48 9 -28 8 -63 11 -90 7 l-45 -7 65 -6 c71 -8 181 -41
220 -68 14 -9 32 -20 40 -25 12 -6 13 -5 3 6 -18 18 -16 30 3 22 10 -4 1 24
-30 86 -26 50 -50 91 -54 91 -4 0 -17 -16 -30 -36 -25 -39 -49 -40 -44 -3 1
13 14 62 28 108 21 70 28 82 39 70 7 -8 52 -93 100 -189 115 -230 184 -350
202 -350 8 0 21 17 29 38 37 94 62 140 100 188 25 30 90 151 161 300 180 374
213 443 213 453 0 6 -13 19 -29 30 l-29 21 -22 -57 c-49 -133 -65 -173 -72
-173 -3 0 -22 21 -41 48 -53 70 -172 183 -259 245 -134 95 -336 180 -483 202
-93 14 -322 14 -406 0z"/>
<path d="M2827 1847 c-14 -34 -35 -84 -47 -112 l-22 -50 -25 49 c-13 26 -28
44 -33 40 -17 -19 -160 -283 -160 -297 0 -12 9 -11 53 4 50 18 87 24 87 14 0
-2 -20 -50 -44 -107 -71 -169 -62 -163 30 17 75 146 224 466 224 480 0 2 -9 9
-19 14 -17 9 -22 4 -44 -52z"/>
<path d="M1743 1506 c-17 -24 -29 -47 -26 -50 9 -9 115 -7 111 2 -28 64 -43
92 -48 92 -3 0 -20 -20 -37 -44z"/>
<path d="M2781 1521 c-16 -29 -15 -29 37 -36 240 -31 359 -77 441 -170 33 -38
51 -42 32 -7 -18 33 -102 102 -162 132 -58 30 -176 63 -264 76 -27 3 -55 11
-62 16 -8 6 -15 3 -22 -11z"/>
<path d="M467 1524 c-4 -4 -7 -16 -7 -26 0 -14 8 -18 41 -18 23 0 63 8 89 17
41 14 53 15 94 3 61 -17 153 -77 193 -124 31 -38 31 -38 57 -21 14 10 26 20
26 24 0 20 -146 100 -235 128 -61 19 -243 32 -258 17z"/>
<path d="M646 1473 c-3 -4 12 -26 34 -49 42 -45 49 -74 29 -117 -14 -31 -59
-57 -99 -57 -66 0 -116 90 -92 166 l10 34 -51 0 c-29 0 -83 -7 -122 -15 -92
-20 -255 -74 -255 -86 0 -5 11 -4 25 1 47 18 260 70 286 70 l26 0 -1 -157 c-1
-180 11 -260 60 -412 31 -94 108 -246 152 -301 l18 -22 154 16 c85 8 210 18
277 22 l122 7 19 51 c11 28 39 150 62 271 23 121 46 230 51 242 8 21 13 22 69
16 70 -7 81 8 20 26 -22 6 -47 23 -56 36 -21 33 -26 32 -49 -11 -47 -87 -209
-198 -375 -258 -25 -9 -70 -31 -99 -50 -85 -55 -108 -62 -132 -40 -19 17 -21
27 -16 84 7 87 82 276 131 330 20 22 36 44 36 48 0 13 -92 97 -132 121 -42 25
-94 42 -102 34z"/>
<path d="M555 1429 c-5 -6 -8 -33 -7 -58 1 -81 76 -117 125 -59 24 29 22 43
-15 83 -35 38 -90 56 -103 34z"/>
<path d="M1047 1365 c-54 -19 -60 -28 -12 -18 22 4 73 8 113 8 60 0 70 2 55
13 -22 16 -108 15 -156 -3z"/>
<path d="M3302 1265 c0 -5 6 -26 13 -45 7 -19 14 -28 14 -20 0 8 -6 29 -14 45
-7 17 -13 26 -13 20z"/>
<path d="M2500 1035 c-1 -82 -25 -144 -65 -171 -33 -22 -108 -24 -153 -5 -41
17 -87 83 -103 144 l-11 47 -28 -20 c-37 -26 -85 -25 -190 5 -46 13 -85 23
-86 22 0 -1 -13 -35 -29 -75 l-27 -73 38 -72 c56 -108 124 -231 132 -239 8 -8
84 -14 267 -23 72 -3 183 -11 248 -16 108 -10 120 -10 138 7 24 21 137 247
145 290 5 28 3 32 -23 38 -86 22 -195 104 -233 176 l-19 35 -1 -70z"/>
<path d="M1377 1008 c-62 -293 -85 -395 -91 -410 -7 -16 15 -16 316 -11 177 3
324 6 325 7 1 1 -36 68 -83 150 -46 81 -84 155 -84 164 0 10 12 50 26 90 15
40 24 76 20 80 -4 4 -98 8 -209 10 l-202 3 -18 -83z"/>
<path d="M1350 510 c-225 -10 -404 -21 -410 -25 -3 -1 -50 -6 -105 -9 -121 -9
-475 -53 -565 -71 -60 -12 -41 -13 226 -14 l291 -1 24 -26 c84 -92 351 -245
489 -280 231 -58 380 -63 585 -20 196 41 463 181 574 300 l24 26 326 1 c295 1
321 2 271 15 -116 28 -476 75 -690 90 -47 3 -103 7 -125 9 -102 9 -768 13
-915 5z"/>
</g>
</svg>
